<mxfile host="app.diagrams.net" modified="2024-02-13T03:02:25.692Z" agent="Mozilla/5.0 (Macintosh; Intel Mac OS X 10_15_7) AppleWebKit/537.36 (KHTML, like Gecko) Chrome/121.0.0.0 Safari/537.36" etag="rjw28f-3BxLBR1rN3fqd" version="23.1.3" type="device">
  <diagram name="Page-1" id="8uMGS2csrcNrUv9wJNzZ">
    <mxGraphModel dx="1025" dy="653" grid="1" gridSize="10" guides="1" tooltips="1" connect="1" arrows="1" fold="1" page="1" pageScale="1" pageWidth="850" pageHeight="1100" math="0" shadow="0">
      <root>
        <mxCell id="0" />
        <mxCell id="1" parent="0" />
        <mxCell id="BcprvuU3s60wQRuG9vqj-1" value="&lt;font style=&quot;font-size: 14px;&quot;&gt;&quot;Pole your meet up places with your friends or family&quot;&lt;/font&gt;" style="rounded=0;whiteSpace=wrap;html=1;" vertex="1" parent="1">
          <mxGeometry x="250" y="40" width="350" height="60" as="geometry" />
        </mxCell>
        <mxCell id="BcprvuU3s60wQRuG9vqj-2" value="&lt;font style=&quot;font-size: 14px;&quot;&gt;Browse&lt;/font&gt;" style="rounded=1;whiteSpace=wrap;html=1;" vertex="1" parent="1">
          <mxGeometry x="160" y="220" width="80" height="30" as="geometry" />
        </mxCell>
        <mxCell id="BcprvuU3s60wQRuG9vqj-3" value="&lt;font style=&quot;font-size: 14px;&quot;&gt;Favorites&lt;/font&gt;" style="rounded=1;whiteSpace=wrap;html=1;" vertex="1" parent="1">
          <mxGeometry x="160" y="260" width="80" height="30" as="geometry" />
        </mxCell>
        <mxCell id="BcprvuU3s60wQRuG9vqj-4" value="&lt;font style=&quot;font-size: 14px;&quot;&gt;New Locations&lt;/font&gt;" style="rounded=1;whiteSpace=wrap;html=1;" vertex="1" parent="1">
          <mxGeometry x="155" y="300" width="90" height="30" as="geometry" />
        </mxCell>
        <mxCell id="BcprvuU3s60wQRuG9vqj-5" value="" style="endArrow=classic;html=1;rounded=0;" edge="1" parent="1">
          <mxGeometry width="50" height="50" relative="1" as="geometry">
            <mxPoint x="150" y="330" as="sourcePoint" />
            <mxPoint x="100" y="370" as="targetPoint" />
          </mxGeometry>
        </mxCell>
        <mxCell id="BcprvuU3s60wQRuG9vqj-7" value="Bars" style="rounded=0;whiteSpace=wrap;html=1;" vertex="1" parent="1">
          <mxGeometry x="55" y="420" width="40" height="20" as="geometry" />
        </mxCell>
        <mxCell id="BcprvuU3s60wQRuG9vqj-8" value="Restaurants" style="rounded=0;whiteSpace=wrap;html=1;" vertex="1" parent="1">
          <mxGeometry x="42.5" y="450" width="65" height="20" as="geometry" />
        </mxCell>
        <mxCell id="BcprvuU3s60wQRuG9vqj-10" value="" style="endArrow=classic;html=1;rounded=0;" edge="1" parent="1">
          <mxGeometry width="50" height="50" relative="1" as="geometry">
            <mxPoint x="204.5" y="340" as="sourcePoint" />
            <mxPoint x="205" y="370" as="targetPoint" />
          </mxGeometry>
        </mxCell>
        <mxCell id="BcprvuU3s60wQRuG9vqj-12" value="" style="endArrow=classic;html=1;rounded=0;" edge="1" parent="1">
          <mxGeometry width="50" height="50" relative="1" as="geometry">
            <mxPoint x="250" y="330" as="sourcePoint" />
            <mxPoint x="310" y="370" as="targetPoint" />
          </mxGeometry>
        </mxCell>
        <mxCell id="BcprvuU3s60wQRuG9vqj-13" value="Games/bowling" style="rounded=0;whiteSpace=wrap;html=1;" vertex="1" parent="1">
          <mxGeometry x="160" y="420" width="90" height="20" as="geometry" />
        </mxCell>
        <mxCell id="BcprvuU3s60wQRuG9vqj-14" value="Laser tag" style="rounded=0;whiteSpace=wrap;html=1;" vertex="1" parent="1">
          <mxGeometry x="172.5" y="450" width="65" height="20" as="geometry" />
        </mxCell>
        <mxCell id="BcprvuU3s60wQRuG9vqj-16" value="Mini golf" style="rounded=0;whiteSpace=wrap;html=1;" vertex="1" parent="1">
          <mxGeometry x="173.75" y="480" width="63.75" height="20" as="geometry" />
        </mxCell>
        <mxCell id="BcprvuU3s60wQRuG9vqj-17" value="Movies" style="rounded=0;whiteSpace=wrap;html=1;" vertex="1" parent="1">
          <mxGeometry x="295" y="420" width="70" height="20" as="geometry" />
        </mxCell>
        <mxCell id="BcprvuU3s60wQRuG9vqj-18" value="Events" style="rounded=0;whiteSpace=wrap;html=1;" vertex="1" parent="1">
          <mxGeometry x="295" y="450" width="70" height="20" as="geometry" />
        </mxCell>
        <mxCell id="BcprvuU3s60wQRuG9vqj-19" value="Clubs/dancing" style="rounded=0;whiteSpace=wrap;html=1;" vertex="1" parent="1">
          <mxGeometry x="290" y="480" width="80" height="20" as="geometry" />
        </mxCell>
        <mxCell id="BcprvuU3s60wQRuG9vqj-20" value="Concerts" style="rounded=0;whiteSpace=wrap;html=1;" vertex="1" parent="1">
          <mxGeometry x="295" y="510" width="70" height="20" as="geometry" />
        </mxCell>
        <mxCell id="BcprvuU3s60wQRuG9vqj-21" value="Casino" style="rounded=0;whiteSpace=wrap;html=1;" vertex="1" parent="1">
          <mxGeometry x="300" y="540" width="60" height="20" as="geometry" />
        </mxCell>
        <mxCell id="BcprvuU3s60wQRuG9vqj-22" value="Parks" style="rounded=0;whiteSpace=wrap;html=1;" vertex="1" parent="1">
          <mxGeometry x="297.5" y="570" width="65" height="20" as="geometry" />
        </mxCell>
        <mxCell id="BcprvuU3s60wQRuG9vqj-23" value="&lt;font style=&quot;font-size: 14px;&quot;&gt;Account&lt;/font&gt;" style="rounded=0;whiteSpace=wrap;html=1;" vertex="1" parent="1">
          <mxGeometry x="610" y="160" width="100" height="30" as="geometry" />
        </mxCell>
        <mxCell id="BcprvuU3s60wQRuG9vqj-24" value="User name" style="rounded=0;whiteSpace=wrap;html=1;" vertex="1" parent="1">
          <mxGeometry x="615" y="230" width="90" height="20" as="geometry" />
        </mxCell>
        <mxCell id="BcprvuU3s60wQRuG9vqj-25" value="Password" style="rounded=0;whiteSpace=wrap;html=1;" vertex="1" parent="1">
          <mxGeometry x="625" y="260" width="70" height="20" as="geometry" />
        </mxCell>
        <mxCell id="BcprvuU3s60wQRuG9vqj-26" value="Email" style="rounded=0;whiteSpace=wrap;html=1;" vertex="1" parent="1">
          <mxGeometry x="620" y="290" width="80" height="20" as="geometry" />
        </mxCell>
        <mxCell id="BcprvuU3s60wQRuG9vqj-27" value="" style="endArrow=classic;html=1;rounded=0;" edge="1" parent="1">
          <mxGeometry width="50" height="50" relative="1" as="geometry">
            <mxPoint x="659.5" y="310" as="sourcePoint" />
            <mxPoint x="659.5" y="350" as="targetPoint" />
          </mxGeometry>
        </mxCell>
        <mxCell id="BcprvuU3s60wQRuG9vqj-28" value="User model" style="rounded=0;whiteSpace=wrap;html=1;" vertex="1" parent="1">
          <mxGeometry x="625" y="360" width="70" height="20" as="geometry" />
        </mxCell>
        <mxCell id="BcprvuU3s60wQRuG9vqj-30" value="Log in to connect to the polls" style="rounded=0;whiteSpace=wrap;html=1;" vertex="1" parent="1">
          <mxGeometry x="580" y="390" width="160" height="20" as="geometry" />
        </mxCell>
        <mxCell id="BcprvuU3s60wQRuG9vqj-31" value="Food/dining" style="ellipse;whiteSpace=wrap;html=1;" vertex="1" parent="1">
          <mxGeometry x="35" y="375" width="80" height="40" as="geometry" />
        </mxCell>
        <mxCell id="BcprvuU3s60wQRuG9vqj-32" value="Sports" style="ellipse;whiteSpace=wrap;html=1;" vertex="1" parent="1">
          <mxGeometry x="160.63" y="375" width="90" height="40" as="geometry" />
        </mxCell>
        <mxCell id="BcprvuU3s60wQRuG9vqj-33" value="Entertainment" style="ellipse;whiteSpace=wrap;html=1;" vertex="1" parent="1">
          <mxGeometry x="285" y="375" width="90" height="40" as="geometry" />
        </mxCell>
        <mxCell id="BcprvuU3s60wQRuG9vqj-34" value="Create poll" style="rhombus;whiteSpace=wrap;html=1;" vertex="1" parent="1">
          <mxGeometry x="610" y="460" width="100" height="30" as="geometry" />
        </mxCell>
        <mxCell id="BcprvuU3s60wQRuG9vqj-35" value="" style="shape=flexArrow;endArrow=classic;html=1;rounded=0;" edge="1" parent="1">
          <mxGeometry width="50" height="50" relative="1" as="geometry">
            <mxPoint x="659.5" y="410" as="sourcePoint" />
            <mxPoint x="659.5" y="450" as="targetPoint" />
          </mxGeometry>
        </mxCell>
        <mxCell id="BcprvuU3s60wQRuG9vqj-36" value="Poll history" style="rhombus;whiteSpace=wrap;html=1;" vertex="1" parent="1">
          <mxGeometry x="610" y="500" width="100" height="30" as="geometry" />
        </mxCell>
        <mxCell id="BcprvuU3s60wQRuG9vqj-38" value="" style="curved=1;endArrow=classic;html=1;rounded=0;" edge="1" parent="1">
          <mxGeometry width="50" height="50" relative="1" as="geometry">
            <mxPoint x="690" y="530" as="sourcePoint" />
            <mxPoint x="770" y="580" as="targetPoint" />
            <Array as="points">
              <mxPoint x="730" y="540" />
              <mxPoint x="760" y="550" />
            </Array>
          </mxGeometry>
        </mxCell>
        <mxCell id="BcprvuU3s60wQRuG9vqj-39" value="" style="curved=1;endArrow=classic;html=1;rounded=0;" edge="1" parent="1">
          <mxGeometry width="50" height="50" relative="1" as="geometry">
            <mxPoint x="610" y="530" as="sourcePoint" />
            <mxPoint x="550" y="590" as="targetPoint" />
            <Array as="points">
              <mxPoint x="550" y="540" />
            </Array>
          </mxGeometry>
        </mxCell>
        <mxCell id="BcprvuU3s60wQRuG9vqj-41" value="" style="curved=1;endArrow=classic;html=1;rounded=0;" edge="1" parent="1">
          <mxGeometry width="50" height="50" relative="1" as="geometry">
            <mxPoint x="720" y="480" as="sourcePoint" />
            <mxPoint x="790" y="580" as="targetPoint" />
            <Array as="points">
              <mxPoint x="770" y="500" />
            </Array>
          </mxGeometry>
        </mxCell>
        <mxCell id="BcprvuU3s60wQRuG9vqj-42" value="" style="curved=1;endArrow=classic;html=1;rounded=0;" edge="1" parent="1">
          <mxGeometry width="50" height="50" relative="1" as="geometry">
            <mxPoint x="600" y="480" as="sourcePoint" />
            <mxPoint x="530" y="580" as="targetPoint" />
            <Array as="points">
              <mxPoint x="540" y="490" />
            </Array>
          </mxGeometry>
        </mxCell>
        <mxCell id="BcprvuU3s60wQRuG9vqj-43" value="Friends" style="shape=parallelogram;perimeter=parallelogramPerimeter;whiteSpace=wrap;html=1;fixedSize=1;" vertex="1" parent="1">
          <mxGeometry x="500" y="590" width="110" height="20" as="geometry" />
        </mxCell>
        <mxCell id="BcprvuU3s60wQRuG9vqj-44" value="Family" style="shape=parallelogram;perimeter=parallelogramPerimeter;whiteSpace=wrap;html=1;fixedSize=1;" vertex="1" parent="1">
          <mxGeometry x="710" y="590" width="110" height="20" as="geometry" />
        </mxCell>
      </root>
    </mxGraphModel>
  </diagram>
</mxfile>
